# xmcd CD database file
#
# Track frame offsets:
#	150
#	20451
#	42069
#	57618
#	74354
#	101365
#	122887
#	143009
#	170508
#	192161
#	218429
#	242988
#	258739
#	277236
#
# Disc length: 3986 seconds
#
# Revision: 1
# Processed by: cddbd v1.5.2PL0 Copyright (c) Steve Scherf et al.
# Submitted via: CDex 1.51
#
DISCID=d40f900e
DTITLE=Marcus Johnson - Poetically Justified
DYEAR=2009
DGENRE=Jazz
TTITLE0=Chillaxin
TTITLE1=Capice
TTITLE2=I See You (feat. Najee)
TTITLE3=Master Of My Heart (feat. Maysa)
TTITLE4=Danni's Song
TTITLE5=Say Yes
TTITLE6=In The Moment
TTITLE7=Stand By Me (feat. Marcus Anderson)
TTITLE8=Ellicott City
TTITLE9=Cherish The Journey
TTITLE10=This Place Hotel
TTITLE11=Used To Love You
TTITLE12=Hold On (feat. Maysa)
TTITLE13=Heaven
EXTD=YEAR: 2009
EXTT0=
EXTT1=
EXTT2=
EXTT3=
EXTT4=
EXTT5=
EXTT6=
EXTT7=
EXTT8=
EXTT9=
EXTT10=
EXTT11=
EXTT12=
EXTT13=
PLAYORDER=
